<svg width="59" height="98" viewBox="0 0 59 98" fill="none" xmlns="http://www.w3.org/2000/svg">
    <path d="M56.9624 75.32C57.6624 75.32 58.2224 76.02 58.2224 76.72L55.9824 96.88C55.9824 97.44 55.4224 97.86 54.8624 97.86H1.80242C1.10242 97.86 0.682422 97.3 0.682422 96.74V1.25999C0.682422 0.559994 1.10242 -6.67572e-06 1.80242 -6.67572e-06H24.3424C25.0424 -6.67572e-06 25.4624 0.559994 25.4624 1.25999V74.2C25.4624 74.76 26.0224 75.32 26.7224 75.32H56.9624Z" fill="url(#paint0_linear_295_5119)"/>
    <path d="M56.9624 75.32C57.6624 75.32 58.2224 76.02 58.2224 76.72L55.9824 96.88C55.9824 97.44 55.4224 97.86 54.8624 97.86H1.80242C1.10242 97.86 0.682422 97.3 0.682422 96.74V1.25999C0.682422 0.559994 1.10242 -6.67572e-06 1.80242 -6.67572e-06H24.3424C25.0424 -6.67572e-06 25.4624 0.559994 25.4624 1.25999V74.2C25.4624 74.76 26.0224 75.32 26.7224 75.32H56.9624Z" fill="url(#paint1_linear_295_5119)"/>
    <defs>
        <linearGradient id="paint0_linear_295_5119" x1="-4.54954" y1="98" x2="39.8934" y2="97.5209" gradientUnits="userSpaceOnUse">
            <stop stop-color="#5FED6D"/>
            <stop offset="1" stop-color="#468736"/>
        </linearGradient>
        <linearGradient id="paint1_linear_295_5119" x1="-4.54954" y1="98" x2="39.8934" y2="97.5209" gradientUnits="userSpaceOnUse">
            <stop stop-color="#2253E4"/>
            <stop offset="1" stop-color="#062EA5"/>
        </linearGradient>
    </defs>
</svg>
